
<?xml version="1.0" encoding="UTF-8"?>
<svg width="198px" height="48px" viewBox="0 0 198 48" version="1.1" xmlns="http://www.w3.org/2000/svg" xmlns:xlink="http://www.w3.org/1999/xlink">
    <title>С фоном</title>
    <defs>
        <linearGradient x1="2.5607943%" y1="53.8328562%" x2="103.949847%" y2="45.6411058%" id="linearGradient-1">
            <stop stop-color="#824098" offset="0%"></stop>
            <stop stop-color="#45409A" offset="46.17%"></stop>
            <stop stop-color="#2FA089" offset="100%"></stop>
        </linearGradient>
        <linearGradient x1="83.4036032%" y1="85.2901268%" x2="16.2306006%" y2="16.2014054%" id="linearGradient-2">
            <stop stop-color="#BBBDDF" offset="0%"></stop>
            <stop stop-color="#8B5B98" offset="100%"></stop>
        </linearGradient>
        <linearGradient x1="85.9637316%" y1="84.4139998%" x2="19.9985773%" y2="18.6778971%" id="linearGradient-3">
            <stop stop-color="#885B98" offset="0%"></stop>
            <stop stop-color="#885B98" offset="0.1787481%"></stop>
            <stop stop-color="#9F77AB" offset="13.92%"></stop>
            <stop stop-color="#B390BC" offset="28.2%"></stop>
            <stop stop-color="#C5A7CB" offset="43.33%"></stop>
            <stop stop-color="#D4B9D6" offset="59.44%"></stop>
            <stop stop-color="#DEC5DF" offset="77.24%"></stop>
            <stop stop-color="#E2C9E1" offset="100%"></stop>
        </linearGradient>
    </defs>
    <g id="Page-1" stroke="none" stroke-width="1" fill="none" fill-rule="evenodd">
        <g id="MX_logo_2020" transform="translate(-391.400000, -406.400000)" fill-rule="nonzero">
            <g id="С-фоном" transform="translate(392.300000, 406.800000)">
                <path d="M174.2,47 L22.2,47 C10,47 5.68434189e-14,37 5.68434189e-14,24.8 L5.68434189e-14,22.2 C5.68434189e-14,10 10,0 22.2,0 L174.2,0 C186.4,0 196.4,10 196.4,22.2 L196.4,24.8 C196.4,37 186.4,47 174.2,47 Z" id="Path" fill="url(#linearGradient-1)"></path>
                <g id="Group" transform="translate(16.500000, 11.900000)" fill="#FFFFFF">
                    <path d="M6.5,22.4 C5.8,23.1 4.9,23.5 3.8,23.5 C2.7,23.5 1.8,23.1 1.1,22.4 C0.4,21.7 1.42108547e-14,20.8 1.42108547e-14,19.7 L1.42108547e-14,3.5 C1.42108547e-14,2.5 0.3,1.7 0.9,1 C1.5,0.4 2.4,0.1 3.5,0.1 C4.4,0.1 5.2,0.3 5.8,0.7 C6.4,1.1 6.8,1.8 6.9,2.6 L7,3.5 C7.6,2.4 8.5,1.5 9.7,0.9 C10.9,0.3 12.1,0 13.4,0 C16.2,0 18.4,1.2 19.8,3.5 C20.5,2.4 21.5,1.5 22.8,0.9 C24.1,0.3 25.5,0 26.9,0 C29.9,0 32.3,1 34.1,2.9 C35.9,4.8 36.8,7.3 36.8,10.3 L36.8,19.6 C36.8,20.7 36.5,21.6 35.8,22.3 C35.1,23 34.2,23.4 33.1,23.4 C32,23.4 31.1,23 30.4,22.3 C29.7,21.6 29.4,20.7 29.4,19.6 L29.4,10.5 C29.4,9.5 29.1,8.6 28.4,7.8 C27.7,7.1 26.8,6.7 25.8,6.7 C24.8,6.7 23.9,7 23.2,7.7 C22.5,8.4 22.1,9.3 22.1,10.4 L22.1,19.6 C22.1,20.7 21.8,21.6 21.1,22.3 C20.4,23 19.5,23.4 18.4,23.4 C17.3,23.4 16.4,23 15.7,22.3 C15,21.6 14.7,20.7 14.7,19.6 L14.7,10.5 C14.7,9.5 14.4,8.6 13.7,7.8 C13,7.1 12.1,6.7 11.1,6.7 C10.1,6.7 9.2,7.1 8.5,7.8 C7.8,8.6 7.4,9.5 7.4,10.6 L7.4,19.6 C7.6,20.7 7.2,21.6 6.5,22.4 Z" id="Path"></path>
                    <path d="M52.7,23.4 C50.8,23.4 48.9,22.9 47.2,22 C45.5,21.1 44,19.7 42.9,17.9 C41.8,16.1 41.2,14 41.2,11.8 C41.2,9.5 41.8,7.4 42.9,5.6 C44,3.8 45.4,2.4 47.2,1.5 C48.9,0.6 50.7,0.1 52.7,0.1 C54.2,0.1 55.6,0.4 56.9,1 C58.2,1.6 59.1,2.4 59.7,3.4 L59.8,2.4 C59.9,1.7 60.3,1.2 60.9,0.7 C61.5,0.3 62.3,0.1 63.2,0.1 C64.2,0.1 65,0.4 65.6,1.1 C66.2,1.8 66.6,2.7 66.6,3.8 L66.6,19.7 C66.6,20.8 66.3,21.7 65.7,22.4 C65.1,23.1 64.3,23.5 63.2,23.5 C62.2,23.5 61.4,23.3 60.8,22.8 C60.2,22.3 59.8,21.8 59.7,21.1 L59.6,20.1 C59,21.1 58.1,21.9 56.8,22.5 C55.5,23.1 54.2,23.4 52.7,23.4 Z M50.3,15.4 C51.3,16.4 52.5,16.9 54,16.9 C55.4,16.9 56.6,16.4 57.7,15.4 C58.7,14.4 59.2,13.2 59.2,11.7 C59.2,10.3 58.7,9.1 57.7,8 C56.7,7 55.5,6.5 54,6.5 C52.6,6.5 51.4,7 50.3,8 C49.3,9 48.8,10.2 48.8,11.7 C48.7,13.2 49.2,14.4 50.3,15.4 Z" id="Shape"></path>
                    <path d="M104.8,22.4 C104.1,23.1 103.2,23.5 102.1,23.5 C101,23.5 100.1,23.1 99.4,22.4 C98.7,21.7 98.3,20.8 98.3,19.7 L98.3,3.5 C98.3,2.5 98.6,1.7 99.2,1 C99.8,0.4 100.7,0.1 101.8,0.1 C102.7,0.1 103.5,0.3 104.1,0.7 C104.7,1.1 105.1,1.8 105.2,2.6 L105.3,3.5 C105.9,2.4 106.8,1.5 108,0.9 C109.2,0.3 110.4,0 111.7,0 C114.5,0 116.7,1.2 118.1,3.5 C118.8,2.4 119.8,1.5 121.1,0.9 C122.4,0.3 123.8,0 125.2,0 C128.2,0 130.6,1 132.4,2.9 C134.2,4.8 135.1,7.3 135.1,10.3 L135.1,19.6 C135.1,20.7 134.8,21.6 134.1,22.3 C133.4,23 132.5,23.4 131.4,23.4 C130.3,23.4 129.4,23 128.7,22.3 C128,21.6 127.7,20.7 127.7,19.6 L127.7,10.5 C127.7,9.5 127.4,8.6 126.7,7.8 C126,7.1 125.1,6.7 124.1,6.7 C123.1,6.7 122.2,7 121.5,7.7 C120.8,8.4 120.4,9.3 120.4,10.4 L120.4,19.6 C120.4,20.7 120.1,21.6 119.4,22.3 C118.7,23 117.8,23.4 116.7,23.4 C115.6,23.4 114.7,23 114,22.3 C113.3,21.6 113,20.7 113,19.6 L113,10.5 C113,9.5 112.7,8.6 112,7.8 C111.3,7.1 110.4,6.7 109.4,6.7 C108.4,6.7 107.5,7.1 106.8,7.8 C106.1,8.6 105.7,9.5 105.7,10.6 L105.7,19.6 C105.8,20.7 105.5,21.6 104.8,22.4 Z" id="Path"></path>
                    <path d="M151,23.4 C149.1,23.4 147.2,22.9 145.5,22 C143.8,21.1 142.3,19.7 141.2,17.9 C140.1,16.1 139.5,14 139.5,11.8 C139.5,9.5 140.1,7.4 141.2,5.6 C142.3,3.8 143.7,2.4 145.5,1.5 C147.2,0.6 149,0.1 151,0.1 C152.5,0.1 153.9,0.4 155.2,1 C156.5,1.6 157.4,2.4 158,3.4 L158.1,2.4 C158.2,1.7 158.6,1.2 159.2,0.7 C159.8,0.3 160.6,0.1 161.5,0.1 C162.5,0.1 163.3,0.4 163.9,1.1 C164.5,1.8 164.9,2.7 164.9,3.8 L164.9,19.7 C164.9,20.8 164.6,21.7 164,22.4 C163.4,23.1 162.6,23.5 161.5,23.5 C160.5,23.5 159.7,23.3 159.1,22.8 C158.5,22.3 158.1,21.8 158,21.1 L157.9,20.1 C157.3,21.1 156.4,21.9 155.1,22.5 C153.8,23.1 152.4,23.4 151,23.4 Z M148.5,15.4 C149.5,16.4 150.7,16.9 152.2,16.9 C153.6,16.9 154.8,16.4 155.9,15.4 C156.9,14.4 157.4,13.2 157.4,11.7 C157.4,10.3 156.9,9.1 155.9,8 C154.9,7 153.7,6.5 152.2,6.5 C150.8,6.5 149.6,7 148.5,8 C147.5,9 147,10.2 147,11.7 C147,13.2 147.5,14.4 148.5,15.4 Z" id="Shape"></path>
                </g>
                <g id="Х-с-фоном" transform="translate(87.900000, 11.900000)">
                    <path d="M15.3,11.3 L10.5,16.5 L16.2,22.5 C17.2,23.5 21.8,18 21.3,17.5 L15.3,11.3 Z" id="Path" fill="url(#linearGradient-2)" opacity="0.8"></path>
                    <path d="M6.5,11.6 L11.4,6.6 L6.4,1.2 C5.5,0.2 0.6,5.4 1.1,5.9 L6.5,11.6 Z" id="Path" fill="url(#linearGradient-3)"></path>
                    <g id="Group" transform="translate(0.000000, 0.000000)" fill="#FFFFFF">
                        <path d="M21.3,5.7 C21.8,5.2 22.1,4.5 22.1,3.6 C22.1,2.6 21.8,1.8 21.1,1.1 C20.4,0.4 19.6,0 18.6,0 C17.6,0 16.6,0.5 15.6,1.5 L0.7,17.7 C0.2,18.2 0,18.9 0,19.8 C0,20.8 0.3,21.6 1,22.3 C1.7,23 2.5,23.4 3.5,23.4 C4.5,23.4 5.5,22.9 6.4,21.9 L21.3,5.7 Z" id="Path"></path>
                        <circle id="Oval" cx="3.8" cy="3.6" r="3.6"></circle>
                        <circle id="Oval" cx="18.6" cy="19.9" r="3.6"></circle>
                    </g>
                </g>
            </g>
        </g>
    </g>
</svg>
