<?xml version="1.0" encoding="utf-8"?>
<!-- Generator: Adobe Illustrator 26.0.3, SVG Export Plug-In . SVG Version: 6.00 Build 0)  -->
<svg version="1.1" id="Слой_1" xmlns="http://www.w3.org/2000/svg" xmlns:xlink="http://www.w3.org/1999/xlink" x="0px" y="0px"
	 viewBox="0 0 283.5 141.7" style="enable-background:new 0 0 283.5 141.7;" xml:space="preserve">
<style type="text/css">
	.st0{fill:#1D1E1C;}
	.st1{fill:url(#SVGID_1_);}
	.st2{fill:#FFFFFF;}
	.st3{fill:url(#SVGID_00000114052149953688520730000011428651071810832565_);}
	.st4{fill:url(#SVGID_00000118364336751119825640000008667611022564260992_);}
	.st5{fill:#28252B;}
	.st6{fill:url(#SVGID_00000130606630165405550800000007883333758113735337_);}
	.st7{fill:url(#SVGID_00000183969715795695220010000008918257458851512510_);}
	.st8{fill:url(#SVGID_00000011709458519556132160000011223125747894732929_);}
</style>
<g>
	<g>
		<path class="st0" d="M220.5,103.2l-158.8,6c-13.7,0.5-25.4-10.3-25.9-24h0c-0.5-13.7,10.3-25.4,24-25.9l158.8-6
			c13.7-0.5,25.4,10.3,25.9,24l0,0C245,91,234.2,102.6,220.5,103.2z"/>
		
			<linearGradient id="SVGID_1_" gradientUnits="userSpaceOnUse" x1="1104.5574" y1="-1714.4293" x2="1315.6278" y2="-1785.6913" gradientTransform="matrix(0.9993 -3.770000e-02 3.770000e-02 0.9993 -996.2382 1863.6262)">
			<stop  offset="0" style="stop-color:#B000FF"/>
			<stop  offset="0.4617" style="stop-color:#4643FF"/>
			<stop  offset="1" style="stop-color:#00FF93"/>
		</linearGradient>
		<path class="st1" d="M220.7,93.7l-158.8,6c-13.7,0.5-25.4-10.3-25.9-24l0,0c-0.5-13.7,10.3-25.4,24-25.9l158.8-6
			c13.7-0.5,25.4,10.3,25.9,24v0C245.3,81.5,234.4,93.2,220.7,93.7z"/>
		<g>
			<g>
				<path class="st2" d="M71.3,81.8c-0.6,0.6-1.4,1.1-2.5,1.1c-1,0-1.9-0.3-2.5-0.9c-0.6-0.6-1.1-1.4-1.1-2.5l-0.5-14.9
					c0-0.9,0.3-1.7,0.8-2.4l0,0c0.5-0.6,1.4-0.9,2.4-0.9c0.9,0,1.6,0.1,2.1,0.5c0.6,0.4,1,1,1.1,1.7l0.1,0.9c0.5-1,1.3-1.9,2.4-2.5
					c1.1-0.6,2.2-0.9,3.4-1c2.6-0.1,4.6,0.9,6.1,3l0,0c0.6-1,1.5-1.9,2.6-2.5c1.2-0.6,2.5-0.9,3.7-1c2.7-0.1,5,0.8,6.7,2.4
					c1.7,1.7,2.6,4,2.7,6.7l0.3,8.6c0,1-0.2,1.9-0.8,2.5c-0.6,0.6-1.4,1.1-2.5,1.1s-1.9-0.3-2.5-0.9c-0.6-0.6-1-1.5-1-2.5L92,69.9
					c0-0.9-0.4-1.7-1-2.5l0,0c-0.6-0.6-1.5-1-2.5-0.9c-0.9,0-1.7,0.4-2.4,1c-0.6,0.6-1,1.5-0.9,2.5l0.3,8.5c0,1-0.2,1.9-0.8,2.5
					c-0.6,0.6-1.4,1.1-2.5,1.1c-1,0-1.9-0.3-2.5-0.9c-0.6-0.6-1-1.5-1-2.5l-0.3-8.4c0-0.9-0.4-1.7-1-2.5l0,0c-0.6-0.6-1.5-1-2.5-0.9
					c-0.9,0-1.7,0.5-2.4,1.1l0,0c-0.6,0.7-1,1.6-0.9,2.6l0.3,8.3l0,0C72.2,80.2,72,81,71.3,81.8z"/>
				<path class="st2" d="M114,81.2c-1.7,0.1-3.5-0.3-5.1-1.1c-1.6-0.8-3-2-4.1-3.6c-1.1-1.6-1.7-3.5-1.8-5.6
					c-0.1-2.1,0.4-4.1,1.4-5.8c1-1.7,2.2-3.1,3.9-3.9c1.5-0.9,3.2-1.4,5-1.5c1.4,0,2.7,0.2,3.9,0.7c1.2,0.5,2.1,1.3,2.7,2.1l0-0.9
					c0.1-0.6,0.4-1.1,1-1.6c0.5-0.4,1.3-0.6,2.1-0.6c0.9,0,1.7,0.3,2.2,0.9c0.6,0.6,1,1.5,1,2.5l0.5,14.7c0,1-0.2,1.9-0.8,2.5
					c-0.5,0.6-1.3,1.1-2.3,1.1c-0.9,0-1.6-0.1-2.2-0.5c-0.6-0.4-1-0.9-1.1-1.5l-0.1-0.9c-0.5,1-1.3,1.7-2.5,2.3l0,0
					C116.5,80.8,115.4,81.2,114,81.2z M111.5,73.9c1,0.9,2.1,1.3,3.5,1.3c1.3,0,2.4-0.6,3.4-1.5c0.9-1,1.3-2.1,1.3-3.5
					c0-1.3-0.6-2.4-1.5-3.4c-1-0.9-2.1-1.3-3.5-1.3c-1.3,0-2.4,0.6-3.4,1.5c-0.9,1-1.3,2.1-1.3,3.5C110,71.9,110.5,73,111.5,73.9z"
					/>
				<path class="st2" d="M162,78.6c-0.6,0.6-1.4,1.1-2.5,1.1c-1,0-1.9-0.3-2.5-0.9c-0.6-0.6-1.1-1.4-1.1-2.5l-0.5-14.9
					c0-0.9,0.3-1.7,0.8-2.4l0,0c0.5-0.6,1.4-0.9,2.4-0.9c0.9,0,1.6,0.1,2.1,0.5c0.6,0.4,1,1,1.1,1.7l0.1,0.9c0.5-1,1.3-1.9,2.4-2.5
					c1.1-0.6,2.2-0.9,3.4-1c2.6-0.1,4.6,0.9,6.1,3c0,0,0,0,0,0c0.6-1,1.5-1.9,2.6-2.5c1.2-0.6,2.5-0.9,3.7-1c2.7-0.1,5,0.8,6.7,2.4
					c1.7,1.7,2.6,4,2.7,6.7l0.3,8.6c0,1-0.2,1.9-0.8,2.5c-0.6,0.6-1.4,1.1-2.5,1.1c-1,0-1.9-0.3-2.5-0.9c-0.6-0.6-1-1.5-1-2.5
					l-0.3-8.4c0-0.9-0.4-1.7-1-2.5l0,0c-0.6-0.6-1.5-1-2.5-0.9c-0.9,0-1.7,0.4-2.4,1c-0.6,0.6-1,1.5-0.9,2.5l0.3,8.5
					c0,1-0.2,1.9-0.8,2.5c-0.6,0.6-1.4,1.1-2.5,1.1c-1,0-1.9-0.3-2.5-0.9c-0.6-0.6-1-1.5-1-2.5l-0.3-8.4c0-0.9-0.4-1.7-1-2.5l0,0
					c-0.6-0.6-1.5-1-2.5-0.9c-0.9,0-1.7,0.5-2.4,1.1l0,0c-0.6,0.7-1,1.6-0.9,2.6l0.3,8.3l0,0C162.9,77,162.7,77.8,162,78.6z"/>
				<path class="st2" d="M204.7,78c-1.7,0.1-3.5-0.3-5.1-1.1c-1.6-0.8-3-2-4.1-3.6c-1.1-1.6-1.7-3.5-1.8-5.6
					c-0.1-2.1,0.4-4.1,1.4-5.8c1-1.7,2.2-3.1,3.9-3.9c1.5-0.9,3.2-1.4,5-1.5c1.4,0,2.7,0.2,3.9,0.7c1.2,0.5,2.1,1.3,2.7,2.1l0-0.9
					c0.1-0.6,0.4-1.1,1-1.6c0.5-0.4,1.3-0.6,2.1-0.6c0.9,0,1.7,0.3,2.2,0.9c0.6,0.6,1,1.5,1,2.5l0.5,14.7c0,1-0.2,1.9-0.8,2.5
					c-0.5,0.6-1.3,1.1-2.3,1.1c-0.9,0-1.6-0.1-2.2-0.5c-0.6-0.4-1-0.9-1.1-1.5l-0.1-0.9c-0.5,1-1.3,1.7-2.5,2.3l0,0
					C207.2,77.6,206,77.9,204.7,78z M202.1,70.6c1,0.9,2.1,1.3,3.5,1.3c1.3,0,2.4-0.6,3.4-1.5c0.9-1,1.3-2.1,1.3-3.5
					c0-1.3-0.6-2.4-1.5-3.4c-1-0.9-2.1-1.3-3.5-1.3c-1.3,0-2.4,0.6-3.4,1.5c-0.9,1-1.3,2.1-1.3,3.5
					C200.7,68.7,201.2,69.7,202.1,70.6z"/>
			</g>
			<g>
				<path class="st2" d="M150.3,63.6c0.5-0.5,0.7-1.1,0.6-2c0-0.9-0.4-1.6-1-2.3c-0.6-0.6-1.4-1-2.4-0.9s-1.9,0.5-2.7,1.5
					l-13.2,15.4c-0.5,0.5-0.6,1.1-0.6,2c0,0.9,0.4,1.6,1,2.3c0.6,0.6,1.4,1,2.4,0.9c0.9,0,1.9-0.5,2.6-1.5L150.3,63.6z"/>
				<path class="st2" d="M133.6,58.9c2.2-0.3,4.1,1.5,3.8,3.8c-0.2,1.5-1.4,2.7-2.8,2.9c-2.2,0.3-4.1-1.5-3.8-3.8
					C131,60.3,132.1,59.1,133.6,58.9z"/>
				<path class="st2" d="M147.8,73.4c2.2-0.3,4.1,1.5,3.8,3.8c-0.2,1.5-1.4,2.7-2.8,2.9c-2.2,0.3-4.1-1.5-3.8-3.8
					C145.2,74.8,146.3,73.6,147.8,73.4z"/>
			</g>
		</g>
		<path class="st0" d="M60.7,101.2C46.6,100.9,35,89.6,34.4,75.4c-0.6-14.8,11-27.3,25.9-27.9l158.8-6c14.8-0.6,27.3,11,27.9,25.9
			c0.6,14.8-11,27.3-25.9,27.9l-158.8,6C61.8,101.2,61.2,101.2,60.7,101.2z M220.7,45.2c-0.5,0-0.9,0-1.4,0l-158.8,6
			c-12.7,0.5-22.7,11.2-22.2,24c0.5,12.7,11.2,22.7,24,22.2l158.8-6c12.7-0.5,22.7-11.2,22.2-24C242.8,55.2,232.8,45.5,220.7,45.2z"
			/>
	</g>
	<g>
		<path class="st2" d="M197,42.3c3.7-0.1,7.4-0.2,11.1-0.6c3.5-0.4,6.9-1,10.1-2.3c5.2-2.1,8.6-5.9,10.4-11.2
			c0.9-2.7,1.4-5.5,1.8-8.3c0.4-3.4,0.6-7.3,0.7-10.6l0,0c0,3.4,0.2,6.8,0.6,10.1c0.4,3.6,1.1,7,2.5,10.4c2.1,5.1,5.9,8.3,11.1,10
			c2.9,1,6,1.5,9,1.9c3.3,0.4,6.6,0.5,9.9,0.5c0.3,0,0.7,0,1,0c-4,0.1-8.1,0.2-12.1,0.7c-3.3,0.4-6.5,1.1-9.6,2.4
			c-5.1,2.2-8.3,6-10.1,11.2c-0.9,2.8-1.4,5.6-1.8,8.5c-0.4,3.4-0.5,6.7-0.6,10.1c0-0.5,0-0.9-0.1-1.4c0-0.5,0-0.9,0-1.4
			c-0.2-4.4-0.5-8.7-1.5-13c-0.6-2.6-1.5-5.1-2.9-7.4c-2-3.3-5-5.5-8.5-6.9c-2.6-1-5.3-1.6-8.1-2c-3.5-0.5-7-0.7-10.5-0.8
			C198.7,42.3,197.9,42.3,197,42.3z"/>
		<path class="st2" d="M38.1,93.4c2.1-0.1,4.2-0.1,6.3-0.4c2-0.2,3.9-0.6,5.8-1.3c3-1.2,4.9-3.3,5.9-6.4c0.5-1.5,0.8-3.1,1-4.7
			c0.2-1.9,0.4-4.1,0.4-6l0,0c0,1.9,0.1,3.9,0.3,5.8c0.2,2,0.6,4,1.4,5.9c1.2,2.9,3.4,4.7,6.3,5.7c1.7,0.6,3.4,0.9,5.1,1.1
			c1.9,0.2,3.8,0.3,5.7,0.3c0.2,0,0.4,0,0.6,0c-2.3,0.1-4.6,0.1-6.9,0.4c-1.9,0.2-3.7,0.6-5.5,1.4c-2.9,1.2-4.7,3.4-5.7,6.4
			c-0.5,1.6-0.8,3.2-1,4.8c-0.2,1.9-0.3,3.8-0.3,5.7c0-0.3,0-0.5,0-0.8c0-0.3,0-0.5,0-0.8c-0.1-2.5-0.3-5-0.8-7.4
			c-0.3-1.5-0.8-2.9-1.7-4.2c-1.2-1.9-2.8-3.1-4.9-3.9c-1.5-0.6-3-0.9-4.6-1.2c-2-0.3-4-0.4-6-0.4C39,93.4,38.5,93.4,38.1,93.4z"/>
	</g>
</g>
</svg>
